# xmcd CD database file
#
# Track frame offsets:
#	150
#	16705
#	31083
#	51638
#	65655
#	79727
#	96200
#	111312
#	132455
#	150409
#	167731
#	192861
#	208900
#
# Disc length: 2992 seconds
#
# Revision: 0
# Processed by: cddbd v1.5.2PL0 Copyright (c) Steve Scherf et al.
# Submitted via: Feurio! 1.68 - http://www.feurio.com
#
DISCID=b00bae0d
DTITLE=Shooting John - Happiness +/-
DYEAR=2008
DGENRE=Country
TTITLE0=Love And Will
TTITLE1=War
TTITLE2=Afterwards
TTITLE3=Words
TTITLE4=Artist's Dilemma
TTITLE5=Mistaken
TTITLE6=Emptiness Of Days
TTITLE7=I Thought No More Was Needed
TTITLE8=Savior
TTITLE9=Fragile
TTITLE10=Mornings Past
TTITLE11=Drunk and Astray
TTITLE12=Highway Blues
EXTD=Way 278 - Indigo 913492
EXTT0=
EXTT1=
EXTT2=
EXTT3=
EXTT4=
EXTT5=
EXTT6=
EXTT7=
EXTT8=
EXTT9=
EXTT10=
EXTT11=
EXTT12=
PLAYORDER=
